<svg width="1024" height="1024" viewBox="0 0 1024 1024" fill="none" xmlns="http://www.w3.org/2000/svg">
<path d="M463.756 519.279C463.756 519.279 182.382 704.486 113.132 660.535C43.8818 616.585 124.315 393.545 240.253 359.693C289.031 345.451 415.301 422.018 536.35 494.233" stroke="#FB9700" stroke-width="50" stroke-miterlimit="10" stroke-linejoin="round"/>
<path d="M457.667 513.397L450.546 562.355L410.004 519.108L457.667 513.397Z" stroke="#FB9700" stroke-width="50" stroke-miterlimit="10" stroke-linejoin="round"/>
<path d="M532.537 491.775C532.537 491.775 841.123 705.421 910.373 661.471C979.623 617.52 899.19 394.48 783.251 360.628C744.879 349.424 666.324 385.454 575.622 436.495" stroke="#FB9700" stroke-width="50" stroke-miterlimit="10" stroke-linejoin="round"/>
<path d="M571.089 448.599L581.794 400.298L619.043 446.412L571.089 448.599Z" stroke="#FB9700" stroke-width="50" stroke-miterlimit="10" stroke-linejoin="round"/>
<path d="M739.61 445.396C739.61 456.965 748.988 466.343 760.557 466.343C772.126 466.343 781.505 456.965 781.505 445.396C781.505 433.827 772.126 424.449 760.557 424.449C748.988 424.449 739.61 433.827 739.61 445.396Z" fill="#FB9700" stroke="#FB9700" stroke-width="8" stroke-miterlimit="10" stroke-linejoin="round"/>
<path d="M781.505 487.291C781.505 498.86 790.883 508.238 802.452 508.238C814.021 508.238 823.399 498.86 823.399 487.291C823.399 475.722 814.021 466.343 802.452 466.343C790.883 466.343 781.505 475.722 781.505 487.291Z" fill="#FB9700" stroke="#FB9700" stroke-width="8" stroke-miterlimit="10" stroke-linejoin="round"/>
<path d="M697.715 487.291C697.715 498.86 707.094 508.238 718.663 508.238C730.231 508.238 739.61 498.86 739.61 487.291C739.61 475.722 730.231 466.343 718.663 466.343C707.094 466.343 697.715 475.722 697.715 487.291Z" fill="#FB9700" stroke="#FB9700" stroke-width="8" stroke-miterlimit="10" stroke-linejoin="round"/>
<path d="M739.61 529.185C739.61 540.754 748.988 550.133 760.557 550.133C772.126 550.133 781.505 540.754 781.505 529.185C781.505 517.616 772.126 508.238 760.557 508.238C748.988 508.238 739.61 517.616 739.61 529.185Z" fill="#FB9700" stroke="#FB9700" stroke-width="8" stroke-miterlimit="10" stroke-linejoin="round"/>
<path d="M228.116 445.396C228.116 456.965 237.495 508.238 249.063 508.238C260.632 508.238 270.011 456.965 270.011 445.396C270.011 433.827 260.632 424.449 249.063 424.449C237.495 424.449 228.116 433.827 228.116 445.396Z" fill="#FB9700" stroke="#FB9700" stroke-width="8" stroke-miterlimit="10" stroke-linejoin="round"/>
<path d="M228.116 487.291C228.116 498.86 279.389 508.238 290.958 508.238C302.527 508.238 311.905 498.86 311.905 487.291C311.905 475.722 302.527 466.343 290.958 466.343C279.389 466.343 228.116 475.722 228.116 487.291Z" fill="#FB9700" stroke="#FB9700" stroke-width="8" stroke-miterlimit="10" stroke-linejoin="round"/>
<path d="M186.221 487.291C186.221 498.86 195.6 508.238 207.169 508.238C218.738 508.238 270.011 498.86 270.011 487.291C270.011 475.722 218.738 466.343 207.169 466.343C195.6 466.343 186.221 475.722 186.221 487.291Z" fill="#FB9700" stroke="#FB9700" stroke-width="8" stroke-miterlimit="10" stroke-linejoin="round"/>
<path d="M228.116 529.185C228.116 540.754 237.495 550.133 249.063 550.133C260.632 550.133 270.011 540.754 270.011 529.185C270.011 517.616 260.632 466.343 249.063 466.343C237.495 466.343 228.116 517.616 228.116 529.185Z" fill="#FB9700" stroke="#FB9700" stroke-width="8" stroke-miterlimit="10" stroke-linejoin="round"/>
</svg>
